<svg width="66" height="30" viewBox="0 0 66 30" fill="none" xmlns="http://www.w3.org/2000/svg">
<g filter="url(#filter0_d_10644_846)">
<path d="M31.7339 0L26.0582 17.0732H21.7457L17.9289 5.51219L13.9882 17.0732H9.70045L4 0H8.1638L12.0798 12L16.1692 0H19.8869L23.8524 12.0976L27.8923 0H31.7339Z" fill="#141517"/>
<path d="M38.0886 3.7561C40.154 3.7561 41.7402 4.2439 42.8473 5.21951C43.9543 6.17886 44.5078 7.63414 44.5078 9.58536V17.0732H40.8893V15.439C40.1623 16.6585 38.8074 17.2683 36.8246 17.2683C35.8002 17.2683 34.9079 17.0976 34.1479 16.7561C33.4043 16.4146 32.8343 15.9431 32.4378 15.3415C32.0412 14.7398 31.8429 14.0569 31.8429 13.2927C31.8429 12.0732 32.3056 11.1138 33.2309 10.4146C34.1727 9.71545 35.6184 9.36585 37.5681 9.36585H40.6414C40.6414 8.53658 40.3853 7.90244 39.8731 7.46342C39.3609 7.00813 38.5926 6.78049 37.5681 6.78049C36.8577 6.78049 36.1554 6.89431 35.4615 7.12195C34.784 7.33333 34.2057 7.62602 33.7265 8L32.3386 5.34146C33.0656 4.8374 33.9331 4.44715 34.941 4.17073C35.9654 3.89431 37.0146 3.7561 38.0886 3.7561ZM37.7912 14.7073C38.4521 14.7073 39.0387 14.561 39.5509 14.2683C40.0631 13.9593 40.4266 13.5122 40.6414 12.9268V11.5854H37.9895C36.4033 11.5854 35.6102 12.0976 35.6102 13.122C35.6102 13.6098 35.8002 14 36.1802 14.2927C36.5768 14.5691 37.1138 14.7073 37.7912 14.7073Z" fill="#141517"/>
<path d="M61 3.95122L54.9774 17.878C54.366 19.3902 53.6059 20.4553 52.6972 21.0732C51.8049 21.6911 50.7227 22 49.4504 22C48.7564 22 48.0707 21.8943 47.3933 21.6829C46.7158 21.4715 46.1623 21.1789 45.7327 20.8049L47.1454 18.0976C47.4429 18.3577 47.7816 18.561 48.1616 18.7073C48.5582 18.8537 48.9465 18.9268 49.3265 18.9268C49.8552 18.9268 50.2848 18.7967 50.6153 18.5366C50.9457 18.2927 51.2432 17.878 51.5075 17.2927L51.5571 17.1707L45.7823 3.95122H49.7726L53.5151 12.8537L57.2823 3.95122H61Z" fill="#141517"/>
<path d="M61.0173 3.9502L54.9946 17.877C54.3833 19.3892 53.6232 20.4543 52.7145 21.0721C51.8222 21.69 50.74 21.999 49.4677 21.999C48.7737 21.999 48.088 21.8933 47.4106 21.6819C46.7331 21.4705 46.1796 21.1778 45.75 20.8039L47.1627 18.0965C47.4601 18.3567 47.7989 18.5599 48.1789 18.7063C48.5754 18.8526 48.9637 18.9258 49.3438 18.9258C49.8725 18.9258 50.3021 18.7957 50.6326 18.5356C50.963 18.2917 51.2604 17.877 51.5248 17.2917L51.5744 17.1697L53.5323 12.8526L57.2996 3.9502H61.0173Z" fill="#FE7865"/>
</g>
<defs>
<filter id="filter0_d_10644_846" x="0" y="0" width="65.0176" height="30" filterUnits="userSpaceOnUse" color-interpolation-filters="sRGB">
<feFlood flood-opacity="0" result="BackgroundImageFix"/>
<feColorMatrix in="SourceAlpha" type="matrix" values="0 0 0 0 0 0 0 0 0 0 0 0 0 0 0 0 0 0 127 0" result="hardAlpha"/>
<feOffset dy="4"/>
<feGaussianBlur stdDeviation="2"/>
<feComposite in2="hardAlpha" operator="out"/>
<feColorMatrix type="matrix" values="0 0 0 0 0 0 0 0 0 0 0 0 0 0 0 0 0 0 0.25 0"/>
<feBlend mode="normal" in2="BackgroundImageFix" result="effect1_dropShadow_10644_846"/>
<feBlend mode="normal" in="SourceGraphic" in2="effect1_dropShadow_10644_846" result="shape"/>
</filter>
</defs>
</svg>
